# xmcd CD database file
#
# Track frame offsets:
#	150
#	20212
#	40792
#	59462
#	82479
#	101191
#	125197
#	142056
#	161339
#	180038
#	204295
#	220931
#	239266
#
# Disc length: 3530 seconds
#
# Revision: 4
# Processed by: cddbd v1.4PL0 Copyright (c) Steve Scherf et al.
# Submitted via: CDex 1.50
#
DISCID=bf0dc80d
DTITLE=Bugs Henderson and the Shuffle Kings - Have Blues... Must Rock
DYEAR=1998
DGENRE=Rock
TTITLE0=No One Owns The Blues
TTITLE1=Lovin' Yourself
TTITLE2=Chain Me
TTITLE3=Tramp On Your Street
TTITLE4=Look What Love Can Do
TTITLE5=Uncle John
TTITLE6=I Think I'll Just Stay Here and Drink
TTITLE7=My Baby
TTITLE8=Drug Store Blues
TTITLE9=Thirteen Ways
TTITLE10=Have Blues... Must Rock
TTITLE11=Hide Away
TTITLE12=Audio Liner Notes - I Love You Day
EXTD=YEAR: 1998
EXTT0=
EXTT1=
EXTT2=
EXTT3=
EXTT4=
EXTT5=
EXTT6=
EXTT7=
EXTT8=
EXTT9=
EXTT10=
EXTT11=
EXTT12=
PLAYORDER=
